<svg xmlns="http://www.w3.org/2000/svg" viewBox="0 0 58 58"><path d="M25 9.586C11.193 9.586 0 19.621 0 32c0 4.562 1.524 8.803 4.135 12.343C3.792 48.433 2.805 54.194 0 57c0 0 8.571-1.203 14.377-4.709A27.329 27.329 0 0 0 25 54.414c13.807 0 25-10.035 25-22.414S38.807 9.586 25 9.586z" fill="#51a0dd"/><path d="M58 23.414C58 11.035 46.807 1 33 1c-9.97 0-18.575 5.234-22.589 12.804C14.518 11.153 19.553 9.586 25 9.586c13.807 0 25 10.035 25 22.414 0 4.735-1.642 9.124-4.437 12.743C51.162 47.448 58 48.414 58 48.414c-2.805-2.805-3.792-8.566-4.135-12.657C56.476 32.217 58 27.976 58 23.414z" fill="#226bac"/><circle cx="12" cy="32" r="3" fill="#fff"/><circle cx="25" cy="32" r="3" fill="#fff"/><circle cx="38" cy="32" r="3" fill="#fff"/></svg>